<?xml version="1.0" encoding="UTF-8" standalone="no"?>
<svg width="39px" height="33px" viewBox="0 0 39 33" version="1.1" xmlns="http://www.w3.org/2000/svg" xmlns:xlink="http://www.w3.org/1999/xlink">
    <defs></defs>
    <g id="Desktop-designs" stroke="none" stroke-width="1" fill="none" fill-rule="evenodd">
        <g id="Videoplayer" transform="translate(-566.000000, -944.000000)" fill="#FFFFFF">
            <g id="Group" transform="translate(121.000000, 688.000000)">
                <g id="0:02-/-01:45-+-Oval-4-+-Fill-35-+-Fill-133-+-Fill-134" transform="translate(421.000000, 227.000000)">
                    <g id="Group">
                        <g id="Fill-31-+-Fill-32-+-Fill-33" transform="translate(24.000000, 29.000000)">
                            <path d="M17.7237273,0 L8.22811364,9.55572973 L1.71334091,9.55572973 L0,11.2637027 L0,20.913973 L1.54847727,22.4721081 L8.14745455,22.4721081 L17.7272727,32.1116757 L19.5150682,32.1116757 L19.5150682,0.00356756757 L17.7237273,0" id="Fill-31"></path>
                            <path d="M35.8551818,16.0139189 C35.8551818,20.8283514 34.2162955,25.2467838 31.4916136,28.7733243 L32.4506591,29.7383514 C36.387,26.4811622 38.8989545,21.5427568 38.8989545,16.0139189 C38.8989545,10.4850811 36.387,5.54756757 32.4506591,2.28948649 L31.4916136,3.25540541 C34.2162955,6.78105405 35.8551818,11.2003784 35.8551818,16.0139189" id="Fill-32"></path>
                            <path d="M26.72475,16.0139189 C26.72475,18.7966216 25.88625,21.3804324 24.4512273,23.5263243 L25.59375,24.675973 C27.79725,22.4596216 29.1595909,19.3968649 29.1595909,16.0139189 C29.1595909,12.630973 27.79725,9.56910811 25.59375,7.35186486 L24.4512273,8.50151351 C25.88625,10.6482973 26.72475,13.2312162 26.72475,16.0139189" id="Fill-33"></path>
                        </g>
                    </g>
                </g>
            </g>
        </g>
    </g>
</svg>