<?xml version="1.0" encoding="UTF-8" standalone="no"?>
<svg width="25px" height="21px" viewBox="0 0 25 21" version="1.1" xmlns="http://www.w3.org/2000/svg" xmlns:xlink="http://www.w3.org/1999/xlink">
    <defs></defs>
    <g id="Desktop-designs" stroke="none" stroke-width="1" fill="none" fill-rule="evenodd">
        <g id="Wide-(16-columns)" transform="translate(-494.000000, -2718.000000)" fill="#FFFFFF">
            <g id="4" transform="translate(41.000000, 2364.000000)">
                <g id="Replay-this-video-wi-Copy-+-Oval-4-+-Oval-4-Copy-+-Triangle-1-Copy" transform="translate(435.000000, 330.000000)">
                    <g id="Oval-4-+-Oval-4-Copy-+-Triangle-1-Copy" transform="translate(17.000000, 23.000000)">
                        <g id="Fill-31-+-Fill-32-+-Fill-33" transform="translate(0.750000, 0.750000)">
                            <path d="M11.460765,0.571223684 L5.52203672,6.70357895 L1.4475802,6.70357895 L0.376025852,7.79966447 L0.376025852,13.9926908 L1.3444715,14.9926184 L5.47159107,14.9926184 L11.4629824,21.1787763 L12.5811019,21.1787763 L12.5811019,0.573513158 L11.460765,0.571223684" id="Fill-31"></path>
                            <path d="M23.0616019,11.0959342 C23.0616019,14.1855789 22.0366128,17.0210921 20.3325476,19.2842368 L20.9323519,19.9035395 C23.3942106,17.81325 24.9652324,14.6440461 24.9652324,11.0959342 C24.9652324,7.54782237 23.3942106,4.37919079 20.9323519,2.28832895 L20.3325476,2.90820395 C22.0366128,5.17077632 23.0616019,8.00686184 23.0616019,11.0959342" id="Fill-32"></path>
                            <path d="M17.3196672,10.7090132 C17.3196672,12.4948026 16.7952541,14.1529539 15.897765,15.5300724 L16.6123193,16.2678553 C17.990428,14.8455197 18.8424606,12.8800066 18.8424606,10.7090132 C18.8424606,8.53801974 17.990428,6.57307895 16.6123193,5.15017105 L15.897765,5.88795395 C16.7952541,7.26564474 17.3196672,8.92322368 17.3196672,10.7090132" id="Fill-33"></path>
                        </g>
                    </g>
                </g>
            </g>
        </g>
    </g>
</svg>