<?xml version="1.0" encoding="UTF-8" standalone="no"?>
<svg width="36px" height="30px" viewBox="0 0 36 30" version="1.1" xmlns="http://www.w3.org/2000/svg" xmlns:xlink="http://www.w3.org/1999/xlink">
    <defs></defs>
    <g id="Desktop-designs" stroke="none" stroke-width="1" fill="none" fill-rule="evenodd">
        <g id="Artboard-21" transform="translate(-516.000000, -945.000000)" fill="#FFBB00">
            <g id="Group" transform="translate(121.000000, 688.000000)">
                <g id="0:02-/-01:45-+-Oval-4-+-Fill-35-+-Fill-133-+-Fill-134" transform="translate(367.000000, 227.000000)">
                    <g id="Fill-35-+-Fill-133-+-Fill-134" transform="translate(28.000000, 30.000000)">
                        <path d="M15.3168511,0 L7.11038298,8.68702703 L1.48059574,8.68702703 L0,10.2397297 L0,19.0127027 L1.33812766,20.4291892 L7.04068085,20.4291892 L15.3191489,29.1924324 L16.8640851,29.1924324 L16.8640851,0.00324324324 L15.3168511,0" id="Fill-35"></path>
                        <path d="M22.5681702,7.2972973 L21.4468085,8.4827027 L27.5308085,15.7127027 L34.3585532,22.1497297 L35.478383,20.9643243 L29.3966809,13.7351351 L22.5681702,7.2972973" id="Fill-133"></path>
                        <path d="M21.4468085,20.9643243 L22.5666383,22.1497297 L29.3951489,15.7127027 L35.4768511,8.4827027 L34.3570213,7.2972973 L27.5292766,13.7367568 L21.4468085,20.9643243" id="Fill-134"></path>
                    </g>
                </g>
            </g>
        </g>
    </g>
</svg>